<svg xmlns="http://www.w3.org/2000/svg" viewBox="0 0 274.3 39.7" style="enable-background:new 0 0 274.3 39.7" xml:space="preserve"><path d="M0 3.5h6.6v23.1h14.3V32H0V3.5zm28.2 27.3c-1.8-1-3.3-2.3-4.3-4s-1.5-3.6-1.5-5.8.5-4.1 1.5-5.8c1-1.7 2.5-3 4.3-4s3.9-1.4 6.2-1.4 4.4.5 6.2 1.4c1.8 1 3.2 2.3 4.3 4 1 1.7 1.5 3.6 1.5 5.8s-.5 4.1-1.5 5.8c-1 1.7-2.5 3-4.3 4s-3.9 1.4-6.2 1.4c-2.3.1-4.4-.4-6.2-1.4zm10.2-5.4c1-1.1 1.6-2.6 1.6-4.4s-.5-3.3-1.6-4.4c-1-1.1-2.4-1.6-4-1.6s-3 .5-4 1.6c-1.1 1.1-1.6 2.6-1.6 4.4s.5 3.3 1.6 4.4 2.4 1.6 4 1.6c1.6.1 2.9-.5 4-1.6zm21.3-14.9c1.3-.5 2.8-.8 4.5-.8v5.9c-.7-.1-1.2-.1-1.4-.1-1.9 0-3.3.5-4.3 1.5S57 19.5 57 21.6v10.3h-6.3V10.1h6.1V13c.6-1.1 1.6-1.9 2.9-2.5zm29.4 12.3H72.5c.3 1.4 1 2.4 2.1 3.2 1.1.8 2.5 1.2 4.1 1.2 1.1 0 2.1-.2 3-.5s1.7-.9 2.5-1.6l3.4 3.7c-2.1 2.4-5.1 3.5-9 3.5-2.5 0-4.6-.5-6.5-1.4-1.9-1-3.4-2.3-4.4-4s-1.5-3.6-1.5-5.8c0-2.1.5-4.1 1.5-5.8 1-1.7 2.4-3.1 4.2-4 1.8-1 3.8-1.4 6-1.4 2.1 0 4.1.5 5.8 1.4 1.7.9 3.1 2.2 4.1 4 1 1.7 1.5 3.7 1.5 6-.1-.1-.2.4-.2 1.5zm-14.9-7c-1 .8-1.6 1.9-1.8 3.3h10.8c-.2-1.4-.8-2.5-1.8-3.3s-2.2-1.2-3.6-1.2c-1.4-.1-2.6.3-3.6 1.2zm53.7-3.6c1.6 1.6 2.4 4 2.4 7.3V32H124V20.4c0-1.7-.4-3-1.1-3.9-.7-.9-1.7-1.3-3.1-1.3-1.5 0-2.7.5-3.5 1.4-.9 1-1.3 2.4-1.3 4.3v11h-6.3V20.4c0-3.4-1.4-5.2-4.1-5.2-1.5 0-2.6.5-3.5 1.4-.9 1-1.3 2.4-1.3 4.3v11h-6.3V10.1h6.1v2.5c.8-.9 1.8-1.6 3-2.1s2.5-.7 3.9-.7c1.5 0 2.9.3 4.2.9s2.3 1.5 3 2.7c.9-1.1 2-2 3.4-2.6s2.9-.9 4.5-.9c2.6-.2 4.7.6 6.3 2.3zm20-6.2c-.7-.7-1.1-1.5-1.1-2.5s.4-1.8 1.1-2.5c.7-.7 1.7-1 2.8-1s2.1.3 2.8 1 1.1 1.5 1.1 2.4c0 1.1-.4 1.9-1.1 2.6-.7.7-1.7 1-2.8 1s-2.1-.3-2.8-1zm-.3 4.1h6.3V32h-6.3V10.1zm30.7 1c1.7.9 3 2.3 3.9 3.9.9 1.7 1.4 3.7 1.4 5.9 0 2.3-.5 4.2-1.4 5.9s-2.3 3-3.9 3.9c-1.7.9-3.5 1.4-5.5 1.4-2.8 0-5-.9-6.6-2.6v10.2h-6.3V10.1h6.1v2.5c1.6-1.9 3.9-2.8 6.9-2.8 1.9-.1 3.7.4 5.4 1.3zm-2.7 14.3c1-1.1 1.6-2.6 1.6-4.4s-.5-3.3-1.6-4.4c-1-1.1-2.4-1.6-4-1.6s-3 .5-4 1.6-1.6 2.6-1.6 4.4.5 3.3 1.6 4.4c1 1.1 2.4 1.6 4 1.6 1.7.1 3-.5 4-1.6zm14.3 6.2c-1.7-.4-3.1-1-4.1-1.7l2.1-4.6c1 .6 2.2 1.1 3.5 1.5 1.4.4 2.7.6 4.1.6 2.7 0 4-.7 4-2 0-.6-.4-1.1-1.1-1.3-.7-.3-1.9-.5-3.4-.7-1.8-.3-3.3-.6-4.4-.9s-2.2-1-3-1.9c-.9-.9-1.3-2.2-1.3-3.8 0-1.4.4-2.6 1.2-3.7s2-1.9 3.5-2.5 3.3-.9 5.4-.9c1.5 0 3.1.2 4.6.5 1.5.3 2.8.8 3.8 1.4l-2.1 4.5c-1.9-1.1-4-1.6-6.3-1.6-1.4 0-2.4.2-3 .6-.7.4-1 .9-1 1.5 0 .7.4 1.2 1.1 1.4.7.3 1.9.5 3.5.8 1.8.3 3.3.6 4.4 1 1.1.3 2.1 1 3 1.9s1.3 2.1 1.3 3.7c0 1.4-.4 2.6-1.2 3.6s-2 1.9-3.6 2.5-3.4.9-5.5.9c-2-.1-3.8-.4-5.5-.8zm41.6-21.5V32h-6v-2.6c-.8.9-1.8 1.7-3 2.2s-2.4.8-3.8.8c-2.9 0-5.2-.8-6.8-2.5-1.7-1.7-2.5-4.1-2.5-7.4V10.1h6.3v11.4c0 3.5 1.5 5.3 4.4 5.3 1.5 0 2.7-.5 3.7-1.5s1.4-2.5 1.4-4.4V10.1h6.3zm40.4 2.1c1.6 1.6 2.4 4 2.4 7.3V32H268V20.4c0-1.7-.4-3-1.1-3.9s-1.7-1.3-3.1-1.3c-1.5 0-2.7.5-3.5 1.4-.9 1-1.3 2.4-1.3 4.3v11h-6.3V20.4c0-3.4-1.4-5.2-4.1-5.2-1.5 0-2.6.5-3.5 1.4-.9 1-1.3 2.4-1.3 4.3v11h-6.3V10.1h6.1v2.5c.8-.9 1.8-1.6 3-2.1s2.5-.7 3.9-.7c1.5 0 2.9.3 4.2.9s2.3 1.5 3 2.7c.9-1.1 2-2 3.4-2.6s2.9-.9 4.5-.9c2.5-.2 4.7.6 6.3 2.3z" fill="currentColor"/></svg>